<svg width="140" height="39" viewBox="0 0 140 39" fill="none" xmlns="http://www.w3.org/2000/svg">
<path fill-rule="evenodd" clip-rule="evenodd" d="M107.261 5.016C107.33 4.50148 107.747 3.00306 109.964 4.06419C112.176 5.12792 112.085 4.8737 112.996 5.20948C113.907 5.54526 113.023 7.16169 112.884 7.40549C112.745 7.65711 112.684 7.98508 112.411 9.16769C112.146 10.3477 111.061 9.95724 110.571 9.85573C110.076 9.7438 108.489 8.92735 107.287 8.67313C106.085 8.42585 106.662 7.54519 106.883 6.80942C107.244 5.6433 107.205 5.52531 107.261 5.016ZM52.9817 4.78954C53.2538 3.70759 53.527 3.70498 55.0453 4.12492C55.4185 4.22991 56.0094 4.35225 56.8202 4.41645C57.6276 4.4876 59.1326 4.85028 58.9593 5.81597C58.7728 6.88664 58.6684 7.87316 57.7965 8.60545C57.3111 9.01238 56.5725 9.00891 55.9439 9.02192C55.4274 9.03233 54.5211 9.17116 54.0302 8.69395C53.7014 8.37813 53.0805 8.11089 52.6252 7.81589C52.1698 7.51742 52.0221 6.2602 52.3342 5.88364C52.5818 5.5791 52.8684 5.311 52.9817 4.78954ZM1.68945 15.4182C3.0989 15.492 4.80379 14.3337 5.43687 13.5641C6.59309 12.1472 2.39695 5.06979 11.178 0.403587C11.7211 0.118999 12.0676 -0.0441185 13.1483 0.610087C14.4889 1.42394 16.9057 2.3931 18.1286 3.14535C19.1393 3.76138 18.8094 4.05378 18.0764 4.27763C17.7387 4.37567 11.0391 7.15128 12.6929 11.6223C12.9051 12.1984 13.7559 12.5472 14.2368 12.4318C14.7144 12.3268 16.8102 12.0726 17.1956 12.2999C17.8598 12.7268 18.3841 13.3602 19.1526 13.5571C19.1526 13.5571 19.6736 13.5467 19.9812 13.2855C20.9697 12.4387 24.0385 10.8796 25.639 11.0288C26.6975 11.1242 27.5916 12.4691 27.9648 12.5298C28.3335 12.5879 29.1088 12.1914 29.7085 12.1203C30.5671 12.0214 32.0643 13.879 32.8795 14.5566C33.2527 14.8725 32.9839 15.5058 32.7585 15.7774C32.5363 16.0585 30.5926 18.6276 30.5371 20.1903C30.476 21.759 33.6048 23.6912 34.7766 21.0813C35.795 18.2268 36.4859 0.898146 36.6592 0.49469C36.8624 0.0409109 37.2145 0.0140139 37.7698 0.000131522C38.5206 -0.0172214 42.3903 1.6877 42.8456 2.07381C43.3321 2.4816 43.5354 3.01 43.4143 3.43601C43.1799 4.32795 41.8705 8.31739 41.9127 9.95811C41.9438 11.2249 42.3081 11.8964 43.08 11.5572C43.08 11.5572 45.2536 10.3338 47.1362 11.5164C47.6004 11.7403 47.9137 12.4283 48.8244 13.0009C49.7263 13.5736 51.2501 12.5879 51.3923 12.5879C51.5367 12.5879 51.1713 10.6488 51.9476 10.3104C52.7207 9.97807 57.762 11.9442 58.113 12.4118C58.8127 13.3471 58.083 13.6656 58.595 14.5436C59.106 15.4078 63.1933 13.8348 63.6231 13.0591C64.6005 11.2457 64.1396 10.2765 65.3846 10.2896C66.1055 10.293 69.2331 11.2257 69.9051 11.6995C70.7303 12.2791 70.075 15.157 70.4649 15.6959C71.0335 16.4854 75.0942 14.1775 75.9627 12.2018C76.6214 10.7173 77.8153 10.1889 78.384 10.1776C78.9504 10.1716 79.1082 10.385 79.9145 10.5507C80.7342 10.7173 83.2288 11.4617 83.472 12.3129C83.7941 13.466 83.4076 13.7506 83.0777 15.2377C82.7434 16.7258 82.6135 20.2137 82.6268 21.6982C82.6346 22.3221 83.0122 22.7524 83.8152 22.762C84.9514 22.7689 85.0514 21.6436 85.017 21.0579C84.9215 19.4137 86.3187 11.4427 92.8917 10.7711C94.1145 10.6496 94.7965 11.7134 95.8627 11.303C96.7357 10.9681 96.7224 3.09156 96.6958 1.34238C96.6924 0.99619 97.009 0.512043 97.6765 0.654337C98.3062 0.79316 98.0197 0.636984 98.926 1.14195C99.8368 1.64085 101.074 1.76926 102.414 2.22998C102.983 2.33844 103.083 2.96575 102.996 3.31107C102.033 6.75823 101.973 16.6685 101.789 22.5451C102.045 22.9962 102.545 23.2131 102.867 23.142C104.857 22.7082 104.693 22.047 104.87 20.6883C104.975 19.8883 105.648 12.8795 105.673 12.4587C105.699 12.0491 106.229 10.9064 107.352 11.0791C108.918 11.3168 111.955 12.3875 112.033 12.483C112.115 12.5784 112.545 12.8725 112.276 13.8044C112.012 14.7432 111.135 21.3529 112.272 22.4678C113.039 23.2166 113.353 23.4917 113.882 23.4639C114.489 23.4292 116.367 22.5858 116.333 21.9021C116.307 21.3555 115.192 19.8406 115.04 19.6645C114.719 19.2818 114.554 18.4142 115.773 17.7426C116.797 16.7535 121.708 13.4721 122.78 12.496C123.119 12.2183 123.921 11.3507 125.127 12.0934C126.338 12.8456 132.676 16.167 132.52 16.2485C132.364 16.3197 133.666 16.6242 132.69 17.675C131.757 18.6814 131.028 20.8236 131.54 21.536C132.051 22.2475 135.183 21.6401 136.204 21.156C136.828 20.8505 139.545 18.9356 139.631 18.9088C139.896 18.8272 139.743 19.058 140 19.2853C139.536 20.0376 138.985 21.634 137.688 22.9181C137.076 24.0331 138.521 23.3754 138.268 23.9177C138.017 24.4669 134.776 27.1245 131.952 26.9371C130.425 26.8364 130.052 25.6157 129.18 24.6769C128.72 24.1823 128.637 24.1893 127.956 24.4469C127.275 24.7046 124.719 26.2864 124.043 26.5033C123.361 26.7202 122.976 27.0056 121.943 26.6291C120.914 26.2534 119.33 24.6873 118.866 25.0604C118.303 25.5115 115.92 26.6056 114.988 26.9649C114.05 27.3206 113.205 27.5175 112.402 26.9822C111.5 26.3783 109.664 25.1176 107.647 25.8699C105.669 26.7002 103.972 27.4802 102.753 27.6659C101.794 27.8091 101.147 27.416 101.017 27.3709L98.1763 26.3211C98.0286 26.2638 97.0523 26.0261 96.3626 26.1345C94.8876 26.3861 92.4096 27.8906 90.3793 27.816C89.3242 27.7718 86.0232 26.2872 85.6334 25.8898C85.2469 25.4977 84.345 25.3987 83.9541 25.6295C83.0688 26.1553 81.3551 26.8772 81.0519 26.9657C80.7475 27.0629 79.9712 27.534 78.665 26.8399C77.3677 26.1484 76.3703 25.8942 76.3392 25.836C76.3093 25.7753 75.4285 25.6538 75.4629 24.355C75.4985 23.057 75.1775 21.6739 75.1519 21.4032C75.1297 21.1351 74.7954 20.3864 73.9191 20.7221C72.8684 21.1213 70.396 22.3898 69.7585 23.3181C69.1198 24.243 69.2465 24.0504 68.8166 24.9215C68.3957 25.7953 68.3568 25.9783 68.2269 26.2699C68.0092 26.7584 66.9607 27.0256 66.4387 26.8026C64.8948 26.1484 63.7397 25.4161 62.6168 24.7376C61.6183 24.1346 61.6494 23.5619 61.8227 22.7047C62.0826 21.4405 62.4224 18.9799 62.4691 18.5426C62.5246 18.1053 62.8945 17.2889 61.545 17.7123C60.2044 18.1287 59.779 18.3665 58.9593 18.8003C58.3518 19.1222 57.9264 19.1994 57.8231 20.4202C57.7143 21.6366 57.3366 24.5181 57.1589 25.4525C57.0768 25.9072 56.2948 26.8972 55.1153 26.6291C54.0252 26.3916 52.9848 26.0322 52.0265 25.5619C51.0891 25.1046 50.6859 25.0161 50.8936 23.7919C51.098 22.5685 51.5933 18.7023 51.6267 18.068C51.6622 17.4346 51.801 16.2451 51.0458 16.3874C50.4249 16.5054 50.3294 16.5435 49.7307 16.9973C49.4408 17.2142 49.0543 24.7584 41.8094 26.8937C39.7879 27.4906 37.1356 25.0369 35.9117 25.2634C35.0276 25.43 34.1646 25.9783 32.9573 26.6091C31.2879 27.4837 29.8174 26.1684 28.9144 25.6738C28.0259 25.1818 27.4216 25.1246 26.602 25.5384C25.127 26.2733 24.6283 26.8087 24.0119 27.0802C23.3743 27.3579 21.4784 27.3345 20.832 27.0195C18.6151 26.013 15.5041 23.7216 15.222 23.5524C14.9398 23.3789 14.4411 22.7281 14.6711 21.9455C14.9876 20.8575 15.4563 19.5768 15.4907 19.163C15.5385 18.7023 15.4741 18.3665 15.1964 18.2953C12.9439 17.7357 12.6274 18.7187 12.6019 19.5118C12.5574 20.9555 12.5796 29.1774 12.332 30.6046C12.1154 31.8488 11.6989 33.4722 10.5105 34.726C9.32203 35.984 7.95923 36.614 6.87076 37.0139C6.0111 37.3324 5.64679 37.1293 5.20474 36.902C4.04631 36.3189 2.25367 34.9975 1.39067 34.398C0.995272 34.1203 0.86088 33.8149 1.46398 33.4349C5.42132 30.9812 6.41871 30.2454 6.31875 26.0903C6.22323 22.1859 6.30209 21.5256 6.21546 20.7221C6.11994 19.9187 4.13294 20.2918 3.5254 20.0948C2.93896 19.9126 2.88342 19.7964 2.25367 18.7699C1.31293 18.1296 0.709828 17.6177 0.171149 16.685C-0.500812 15.5128 0.974169 15.3774 1.68945 15.4182Z" fill="#903233"/>
<path d="M26.3461 35.6282C26.1312 35.4683 25.8794 35.3417 25.6042 35.2551C25.3441 35.1708 25.065 35.128 24.7834 35.1293C24.2281 35.1293 23.7771 35.275 23.4261 35.5735C23.0785 35.872 22.9052 36.259 22.9052 36.7327C22.9052 37.1865 23.0696 37.563 23.4128 37.8606C23.7516 38.1591 24.1803 38.3049 24.6968 38.3049C24.9926 38.3053 25.2859 38.2617 25.5609 38.1765C25.8297 38.0854 26.0896 37.9491 26.3417 37.7695V38.553C26.1212 38.6811 25.8765 38.7815 25.6164 38.8506C25.3394 38.9174 25.051 38.9508 24.7612 38.9495C24.3915 38.9512 24.0249 38.897 23.6816 38.7899C23.3521 38.6821 23.0551 38.5216 22.8097 38.3188C22.5628 38.1114 22.3697 37.8686 22.2411 37.6038C22.1056 37.3221 22.0378 37.0232 22.0411 36.7223C22.0411 36.4099 22.1078 36.1227 22.2411 35.8477C22.3721 35.5735 22.5665 35.3358 22.823 35.1293C23.0635 34.9243 23.3579 34.7624 23.686 34.6547C24.0159 34.5462 24.3713 34.4959 24.749 34.4959C25.0488 34.4959 25.3343 34.5297 25.6042 34.6044C25.8774 34.6755 26.1373 34.784 26.3928 34.9332L26.3461 35.6282ZM30.9221 38.8341V34.5974H33.7655V35.1805H31.7473V36.2442H33.7643V36.8516H31.7473V38.2172H33.7643V38.8333L30.9221 38.8341ZM38.2593 38.8341V34.5974H39.0878V38.2172H40.936V38.8333L38.2593 38.8341ZM45.1532 38.8341V34.5974H47.9999V35.1805H45.9818V36.2442H47.9999V36.8516H45.9818V38.2172H47.9999V38.8333L45.1532 38.8341ZM53.3056 36.3839H53.6177C54.0176 36.3839 54.2908 36.3431 54.4596 36.2511C54.6207 36.1635 54.6984 36.0108 54.6984 35.7974C54.6984 35.5666 54.6251 35.4069 54.4763 35.3124C54.3252 35.2169 54.0431 35.1701 53.6177 35.1701H53.3067L53.3056 36.3839ZM53.3056 38.2615H53.5877C53.8832 38.2615 54.0986 38.2476 54.2386 38.2311C54.3621 38.2166 54.4802 38.1817 54.5851 38.1287C54.6847 38.0696 54.7651 37.9929 54.8195 37.9049C54.8761 37.8058 54.9045 37.6984 54.9028 37.5899C54.9068 37.4675 54.8709 37.3463 54.7984 37.2377C54.7337 37.139 54.6343 37.0568 54.5118 37.0008C54.4267 36.9654 54.3342 36.9422 54.2386 36.9323C54.1068 36.9126 53.9728 36.9039 53.8387 36.9062H53.3056V38.2615ZM52.4948 38.8341V34.5974H53.7788C54.1475 34.5974 54.4163 34.6148 54.5896 34.6451C54.7673 34.679 54.9117 34.7328 55.0372 34.8039C55.1927 34.9028 55.3193 35.0312 55.4015 35.1839C55.4925 35.3462 55.5314 35.5163 55.5314 35.7054C55.5314 35.9293 55.4703 36.1193 55.3448 36.2685C55.2187 36.4218 55.0264 36.5348 54.8028 36.5869C54.9436 36.6025 55.0785 36.641 55.1989 36.7001C55.3193 36.7591 55.4224 36.8374 55.5014 36.9296C55.6702 37.1119 55.7569 37.3496 55.7569 37.6307C55.7569 37.8042 55.7224 37.9665 55.648 38.1192C55.5802 38.266 55.4757 38.4008 55.3404 38.5157C55.1998 38.6329 55.0214 38.7183 54.8239 38.763C54.6162 38.8098 54.273 38.8341 53.7876 38.8341H52.4948ZM60.9715 36.4039H61.1237C61.5568 36.4039 61.8523 36.3605 61.9911 36.278C62.1388 36.1904 62.2133 36.0412 62.2133 35.8243C62.2133 35.59 62.1355 35.4278 61.9789 35.3332C61.8267 35.2343 61.5402 35.1909 61.1237 35.1909H60.9715V36.4039ZM60.9238 36.9357V38.8341H60.1474V34.5974H61.2969C61.6357 34.5974 61.9 34.6148 62.0866 34.6486C62.2732 34.6859 62.4298 34.7466 62.5642 34.8343C62.7197 34.9367 62.8419 35.0685 62.9285 35.2308C63.0152 35.3904 63.054 35.57 63.054 35.7635C63.054 36.1019 62.963 36.3665 62.7642 36.56C62.5642 36.7526 62.2732 36.8646 61.8867 36.9054L63.6449 38.8341H62.7119L61.0115 36.9357H60.9238ZM68.7596 37.17H70.179L69.6537 36.2008C69.62 36.1314 69.5896 36.0611 69.5626 35.99C69.5315 35.9093 69.4926 35.8208 69.4627 35.7228C69.4165 35.885 69.3556 36.0445 69.2805 36.2L68.7596 37.17ZM71.0465 38.8341L70.4689 37.7426H68.4519L67.8577 38.8341H66.9892L69.4582 34.4282L71.9184 38.8341H71.0465ZM77.1985 35.1805V38.8333H76.3744V35.1805H75.0194V34.5974H78.548V35.1805H77.1985ZM82.7297 38.8333V34.5974H85.5719V35.1805H83.5538V36.2442H85.5719V36.8516H83.5538V38.2172H85.5719V38.8333H82.7297ZM95.1293 38.8333V34.5974H95.9546V38.8341L95.1293 38.8333ZM100.692 38.8333V34.4282L103.933 37.0173C104.019 37.0919 104.106 37.17 104.201 37.2541C104.288 37.3357 104.383 37.4311 104.483 37.5318V34.5974H105.243V38.9999L101.95 36.3631C101.863 36.2885 101.772 36.2173 101.695 36.1331C101.611 36.0539 101.532 35.9711 101.46 35.885V38.8341L100.692 38.8333ZM110.792 38.2103H111.486C111.873 38.2103 112.158 38.1903 112.345 38.1461C112.536 38.1053 112.706 38.0307 112.845 37.9326C113.039 37.7938 113.182 37.6272 113.278 37.4207C113.382 37.1937 113.432 36.9538 113.426 36.7127C113.426 36.4412 113.378 36.2043 113.278 36.0013C113.19 35.8051 113.041 35.6291 112.845 35.4894C112.698 35.3859 112.52 35.3123 112.328 35.275C112.133 35.2317 111.812 35.2108 111.386 35.2108H110.792V38.2103ZM109.964 38.8341V34.5974H111.079C111.803 34.5974 112.315 34.6243 112.61 34.6859C112.91 34.7466 113.17 34.8516 113.387 34.9905C113.687 35.177 113.908 35.4173 114.059 35.7123C114.211 36.0073 114.289 36.3431 114.289 36.7188C114.289 37.0954 114.211 37.4277 114.059 37.7157C113.918 37.9974 113.686 38.2459 113.387 38.4376C113.165 38.5812 112.906 38.6851 112.627 38.7422C112.345 38.8029 111.903 38.8341 111.304 38.8341H109.964ZM118.797 38.8341V34.5974H119.621V38.8341H118.797ZM125.435 37.17H126.857L126.337 36.2008C126.302 36.1315 126.27 36.0612 126.242 35.99C126.207 35.9093 126.176 35.8208 126.142 35.7228C126.116 35.8139 126.086 35.9024 126.055 35.9804C126.025 36.0611 125.991 36.1331 125.96 36.2008L125.435 37.17ZM127.721 38.8341L127.148 37.7426H125.131L124.537 38.8341H123.674L126.137 34.4282L128.597 38.8341H127.721Z" fill="#2B2A29"/>
</svg>
