<svg width="146" height="49" viewBox="0 0 146 49" fill="none" xmlns="http://www.w3.org/2000/svg">
<g clip-path="url(#clip0_2390_65)">
<mask id="mask0_2390_65" style="mask-type:luminance" maskUnits="userSpaceOnUse" x="0" y="0" width="146" height="49">
<path d="M146 0H0V49H146V0Z" fill="white"/>
</mask>
<g mask="url(#mask0_2390_65)">
<path d="M69.6967 49.0003C68.5819 48.9986 67.4683 48.9523 66.3628 48.8617C63.1527 48.5938 60.0283 48.0137 57.1014 47.1422C55.1934 46.5776 53.36 45.9183 51.6185 45.1705L51.5356 45.1327C51.4147 45.0808 51.3304 45.0015 51.3003 44.9114C51.2701 44.8213 51.2965 44.7274 51.3739 44.6492C51.4512 44.5711 51.5736 44.5147 51.7155 44.492C51.8573 44.4693 52.0077 44.4819 52.1351 44.5273L52.4606 44.6387C52.7216 44.7261 52.9816 44.8148 53.2444 44.8999C56.1642 45.8521 58.9422 46.5262 61.7362 46.9596C63.051 47.1639 64.3859 47.3133 65.732 47.4069C67.2207 47.509 68.7192 47.543 70.2157 47.5086C71.2661 47.4871 72.3829 47.4283 73.629 47.3314C75.6278 47.1743 77.586 46.9352 79.755 46.6611L80.0604 46.623C81.5203 46.4386 83.0322 46.2477 84.5328 46.1002C85.9431 45.9558 87.3652 45.8613 88.7924 45.817C90.1494 45.7765 91.5094 45.8 92.8609 45.8871C93.2448 45.9121 93.6269 45.9448 94.0088 45.9783L94.2943 46.0032C94.4077 46.0139 94.74 46.0413 94.8446 46.2673C94.8685 46.3216 94.8722 46.3787 94.8555 46.434C94.8388 46.4894 94.8021 46.5416 94.7482 46.5867C94.6984 46.6292 94.6337 46.664 94.5591 46.6882C94.4845 46.7124 94.402 46.7255 94.318 46.7265L93.9558 46.6949C93.7677 46.677 93.59 46.6592 93.4112 46.6458C92.5532 46.5831 91.6886 46.5646 90.8258 46.5905C90.2122 46.6084 89.5888 46.6417 88.9717 46.6899C88.1736 46.7523 87.3453 46.8392 86.5114 46.9498C84.1934 47.2555 81.8565 47.6309 79.5967 47.9943L77.8485 48.2739C76.434 48.5047 75.0011 48.6881 73.5558 48.8235C72.544 48.9141 71.5251 48.9701 70.5037 48.9913C70.2362 48.9972 69.967 49.0002 69.6962 49.0002" fill="#E21F26"/>
<path d="M1.98185 33.1382H0V37.934H1.98185V33.1382Z" fill="white"/>
<path d="M6.97621 34.1943V37.9344H4.99447V34.1943H3.36621V33.1392H8.60391V34.1943H6.97621Z" fill="white"/>
<path d="M14.3072 37.1015H11.4766L11.0218 37.9342H8.9082L11.81 33.1392H13.9734L16.8752 37.9342H14.7628L14.3072 37.1015ZM13.7814 36.1534L12.8916 34.5564L12.002 36.1534H13.7814Z" fill="white"/>
<path d="M20.2321 33.1387V36.8781H22.6081V37.9345H18.25V33.1387H20.2321Z" fill="white"/>
<path d="M26.1166 33.1382H24.1348V37.934H26.1166V33.1382Z" fill="white"/>
<path d="M32.8902 37.1015H30.0596L29.6048 37.9342H27.4912L30.393 33.1392H32.5564L35.4582 37.9342H33.3458L32.8902 37.1015ZM32.3639 36.1534L31.4746 34.5564L30.585 36.1534H32.3639Z" fill="white"/>
<path d="M36.833 37.9345V33.1387H38.8148L42.4749 36.071V33.1387H44.4463V37.9345H42.4749L38.8148 35.0024V37.9347L36.833 37.9345Z" fill="white"/>
<path d="M51.7669 33.1389L53.0821 36.2364L54.699 33.1389H56.2771L57.8939 36.2364L59.2089 33.1387H61.2817L59.0058 37.9345H56.9843L55.4885 35.1552L53.9917 37.9347H51.9693L49.6943 33.1389H51.7669Z" fill="white"/>
<path d="M62.0813 35.5368C62.0767 35.195 62.1832 34.8563 62.3942 34.5413C62.5986 34.2361 62.8987 33.96 63.2765 33.7294C63.6544 33.4988 64.1023 33.3185 64.5934 33.1993C65.6902 32.9407 66.8987 32.9407 67.9954 33.1993C68.4944 33.3208 68.9498 33.5036 69.3353 33.737C69.7091 33.9658 70.0065 34.2392 70.21 34.5413C70.6285 35.179 70.6285 35.895 70.21 36.5327C70.0062 36.8346 69.7089 37.1079 69.3354 37.3368C68.9502 37.5704 68.4947 37.7532 67.9955 37.8745C66.8988 38.133 65.6903 38.133 64.5935 37.8745C63.8465 37.6918 63.2059 37.3701 62.757 36.9524C62.3082 36.5348 62.0724 36.0409 62.0813 35.5368ZM64.1541 35.5368C64.1509 35.7185 64.2095 35.8986 64.3259 36.065C64.5479 36.383 64.9599 36.6332 65.4729 36.7615C66.0023 36.8931 66.5915 36.8931 67.121 36.7615C67.3761 36.6975 67.6094 36.6034 67.8083 36.4843C68.008 36.3657 68.1678 36.2231 68.2783 36.0649C68.3918 35.898 68.4504 35.7183 68.4504 35.5367C68.4504 35.3552 68.3918 35.1755 68.2783 35.0086C68.1675 34.8503 68.0078 34.7076 67.8083 34.5886C67.6091 34.4699 67.3758 34.3761 67.121 34.3121C66.5915 34.1804 66.0023 34.1804 65.4729 34.3121C64.9594 34.4399 64.5471 34.6903 64.3259 35.0086C64.2094 35.175 64.1508 35.355 64.1539 35.5368" fill="white"/>
<path d="M71.9377 35.5368C71.9331 35.195 72.0396 34.8562 72.2507 34.5413C72.455 34.2361 72.7551 33.96 73.133 33.7294C73.5109 33.4988 73.9588 33.3185 74.4499 33.1993C75.5467 32.9407 76.7551 32.9407 77.8519 33.1993C78.3509 33.3206 78.8064 33.5034 79.1917 33.7369C79.5661 33.9656 79.8638 34.2391 80.0673 34.5413C80.4846 35.1791 80.4846 35.8948 80.0673 36.5326C79.8636 36.8347 79.5659 37.1081 79.1917 37.3368C78.8067 37.5705 78.3511 37.7533 77.8519 37.8745C76.7551 38.133 75.5467 38.133 74.4499 37.8745C73.703 37.6918 73.0623 37.3701 72.6135 36.9524C72.1646 36.5347 71.9289 36.0409 71.9377 35.5368ZM74.0105 35.5368C74.0079 35.7185 74.0665 35.8985 74.1826 36.0649C74.4053 36.3827 74.8175 36.6328 75.3304 36.7614C75.8595 36.893 76.4484 36.893 76.9775 36.7614C77.2328 36.6972 77.4664 36.6032 77.6659 36.4842C77.8649 36.3653 78.0246 36.2227 78.1358 36.0648C78.2488 35.8978 78.307 35.7182 78.307 35.5367C78.307 35.3551 78.2488 35.1755 78.1358 35.0085C78.0244 34.8505 77.8647 34.7078 77.6659 34.5886C77.3581 34.4081 76.9753 34.2863 76.5619 34.2374C76.1484 34.1884 75.7214 34.2143 75.3304 34.312C75.0765 34.3755 74.8447 34.4694 74.6477 34.5886C74.4513 34.7084 74.2933 34.851 74.1826 35.0085C74.0664 35.1749 74.0077 35.355 74.0103 35.5368" fill="white"/>
<path d="M82.1406 33.1392H85.0727C85.5767 33.137 86.0753 33.2042 86.5336 33.3361C86.9797 33.4634 87.3846 33.6414 87.7278 33.8613C88.0694 34.0815 88.342 34.3401 88.5315 34.6238C88.7242 34.9117 88.8238 35.2208 88.8246 35.5332C88.8254 35.8456 88.7274 36.1549 88.5362 36.4432C88.3498 36.7284 88.0786 36.9886 87.7373 37.2099C87.3954 37.4309 86.991 37.6098 86.5449 37.7375C86.0828 37.8698 85.5804 37.937 85.0727 37.9344H82.1406V33.1392ZM84.1225 36.8786H84.5773C84.8917 36.8819 85.2042 36.8474 85.498 36.777C85.7542 36.7149 85.9865 36.6193 86.1797 36.4966C86.3673 36.3761 86.512 36.232 86.6043 36.0736C86.7048 35.9017 86.7544 35.7197 86.7508 35.5365C86.7533 35.3541 86.702 35.173 86.5996 35.0024C86.5053 34.8415 86.3572 34.6952 86.1652 34.5734C85.9732 34.4517 85.7419 34.3573 85.4868 34.2967C85.1969 34.2263 84.8881 34.1916 84.5773 34.1944H84.1225V36.8786Z" fill="white"/>
<path d="M98.9045 34.1944H96.518V34.9959H98.6917V36.0516H96.518V37.9342H94.5361V33.1392H98.9046L98.9045 34.1944Z" fill="white"/>
<path d="M102.575 33.1382H100.593V37.934H102.575V33.1382Z" fill="white"/>
<path d="M104.678 37.9345V33.1387H106.66L110.32 36.071V33.1387H112.291V37.9345H110.32L106.66 35.0024V37.9347L104.678 37.9345Z" fill="white"/>
<path d="M116.376 33.1382H114.395V37.934H116.376V33.1382Z" fill="white"/>
<path d="M122.664 34.3659C122.47 34.2637 122.252 34.1809 122.018 34.1206C121.818 34.0696 121.606 34.0426 121.391 34.0409C121.167 34.0352 120.947 34.0755 120.764 34.1557C120.687 34.1892 120.625 34.234 120.583 34.2862C120.541 34.3384 120.519 34.3963 120.521 34.4549C120.517 34.5322 120.56 34.6076 120.642 34.6652C120.733 34.725 120.842 34.7734 120.961 34.8079C121.104 34.8514 121.253 34.8866 121.406 34.9131C121.57 34.9428 121.735 34.9744 121.896 35.0083C122.543 35.1445 123.016 35.3257 123.316 35.5519C123.616 35.7792 123.766 36.075 123.766 36.4394C123.771 36.6678 123.704 36.8946 123.57 37.1067C123.441 37.3028 123.244 37.4781 122.993 37.6195C122.722 37.7684 122.405 37.8809 122.062 37.9502C121.659 38.0322 121.237 38.072 120.813 38.0679C119.852 38.0686 118.915 37.8793 118.135 37.5267L118.984 36.5221C119.245 36.6729 119.542 36.7973 119.864 36.8908C120.134 36.9687 120.426 37.0098 120.722 37.0115C121.047 37.0115 121.287 36.9651 121.446 36.8724C121.558 36.8112 121.635 36.7289 121.667 36.6377C121.699 36.5466 121.683 36.4514 121.623 36.3663C121.575 36.308 121.505 36.2578 121.42 36.2199C121.306 36.1689 121.182 36.1271 121.051 36.0957C120.899 36.0582 120.716 36.0154 120.5 35.969C120.244 35.9178 119.993 35.8619 119.747 35.8C119.508 35.7418 119.286 35.6592 119.089 35.5556C118.892 35.4499 118.734 35.3189 118.625 35.1714C118.497 34.9856 118.436 34.7843 118.447 34.5819C118.442 34.3612 118.505 34.142 118.634 33.9366C118.752 33.7499 118.931 33.5809 119.159 33.4405C119.397 33.2982 119.68 33.1888 119.989 33.1193C120.34 33.0402 120.712 33.0015 121.085 33.0051C121.485 33.0068 121.883 33.0401 122.27 33.1041C122.681 33.1696 123.079 33.2667 123.453 33.3931L122.664 34.3659Z" fill="white"/>
<path d="M127.497 34.9894H130.358V33.1387H132.34V37.9337H130.359V35.9564H127.497V37.9341H125.516V33.1391H127.497L127.497 34.9894Z" fill="white"/>
<path d="M138.781 34.1944H136.425V34.9959H138.65V36.0516H136.425V36.8784H138.781V37.9342H134.444V33.1392H138.781V34.1944Z" fill="white"/>
<path d="M144.898 34.3659C144.704 34.2638 144.486 34.1811 144.252 34.1205C144.052 34.0697 143.84 34.0427 143.625 34.0408C143.401 34.0351 143.181 34.0754 142.997 34.1556C142.921 34.1891 142.858 34.234 142.816 34.2861C142.774 34.3383 142.752 34.3963 142.754 34.4548C142.75 34.5321 142.793 34.6075 142.875 34.6651C142.966 34.7251 143.075 34.7735 143.195 34.8079C143.337 34.8514 143.486 34.8866 143.639 34.913C143.803 34.9428 143.969 34.9743 144.129 35.0082C144.776 35.1444 145.249 35.3256 145.549 35.5519C145.849 35.7791 145.999 36.0749 146 36.4393C146.005 36.6677 145.938 36.8945 145.803 37.1067C145.675 37.3027 145.477 37.478 145.226 37.6194C144.955 37.7683 144.639 37.8808 144.297 37.9501C143.893 38.0321 143.472 38.0718 143.048 38.0679C142.086 38.0685 141.149 37.8792 140.368 37.5266L141.217 36.522C141.479 36.6728 141.776 36.7972 142.098 36.8908C142.367 36.9686 142.659 37.0097 142.956 37.0115C143.28 37.0115 143.52 36.9651 143.679 36.8723C143.792 36.8113 143.87 36.729 143.902 36.6378C143.933 36.5465 143.917 36.4512 143.856 36.3662C143.808 36.3081 143.739 36.2579 143.655 36.2199C143.54 36.1691 143.416 36.1273 143.286 36.0956C143.133 36.0582 142.949 36.0153 142.734 35.9689C142.478 35.9177 142.228 35.8619 141.98 35.8C141.741 35.7416 141.519 35.659 141.323 35.5555C141.126 35.4495 140.968 35.3186 140.858 35.1713C140.73 34.9856 140.669 34.7842 140.68 34.5819C140.676 34.3611 140.739 34.1419 140.868 33.9365C140.986 33.7497 141.166 33.5807 141.395 33.4405C141.632 33.2981 141.915 33.1886 142.224 33.1193C142.576 33.0402 142.947 33.0015 143.32 33.0051C143.719 33.0068 144.117 33.0401 144.503 33.104C144.915 33.1695 145.312 33.2666 145.687 33.3931L144.898 34.3659Z" fill="white"/>
<path d="M69.9426 17.2958C68.4313 18.6288 66.2858 19.6254 63.8158 20.1416C61.3457 20.6578 58.6788 20.667 56.1999 20.1679C53.721 19.6688 51.5582 18.6872 50.0237 17.3647C48.4891 16.0422 47.6622 14.4472 47.6622 12.8099C47.6622 11.1726 48.4891 9.57758 50.0237 8.25508C51.5582 6.93258 53.721 5.95095 56.1999 5.45185C58.6788 4.95275 61.3457 4.96197 63.8158 5.4782C66.2858 5.99442 68.4313 6.99095 69.9426 8.32399H79.0329C77.5794 5.87945 74.9738 3.77247 71.5646 2.28497C68.1555 0.797481 64.1055 0.000433787 59.9565 0.000488284C48.7114 0.000488284 39.5947 5.73545 39.5947 12.8099C39.5952 15.8118 41.2715 18.7183 44.3311 21.022C47.3907 23.3257 51.6393 24.8803 56.3352 25.4145C61.0311 25.9486 65.8761 25.4284 70.0244 23.9446C74.1727 22.4607 77.3609 20.1076 79.0325 17.2959L69.9426 17.2958Z" fill="white"/>
<path d="M36.0728 1.03467H27.9951V25.0476H36.0728V1.03467Z" fill="white"/>
<path d="M109.683 25.0476H118.155L99.3171 1.03467H95.258L76.1045 25.0476H85.0491L88.5457 20.6247H106.141L109.683 25.0476ZM92.2607 15.9282L97.2866 9.57163L102.378 15.9282H92.2607Z" fill="white"/>
</g>
</g>
<defs>
<clipPath id="clip0_2390_65">
<rect width="146" height="49" fill="white"/>
</clipPath>
</defs>
</svg>
