<svg width="33" height="31" viewBox="0 0 33 31" fill="none" xmlns="http://www.w3.org/2000/svg">
<ellipse cx="16.1734" cy="15.1053" rx="16.1734" ry="15.1053" fill="#CC7D45"/>
<g clip-path="url(#clip0_2339_346)">
<path d="M16.1735 8.72508C18.3997 8.72508 18.6633 8.73419 19.5388 8.77067C20.3524 8.80411 20.7918 8.93177 21.0847 9.03816C21.472 9.17799 21.7519 9.34821 22.0416 9.61874C22.3345 9.89231 22.5135 10.1507 22.6632 10.5124C22.7771 10.786 22.9138 11.1994 22.9496 11.9562C22.9886 12.7769 22.9984 13.0232 22.9984 15.0992C22.9984 17.1784 22.9886 17.4246 22.9496 18.2423C22.9138 19.0022 22.7771 19.4125 22.6632 19.6861C22.5135 20.0478 22.3312 20.3092 22.0416 20.5798C21.7486 20.8533 21.472 21.0205 21.0847 21.1603C20.7918 21.2667 20.3492 21.3944 19.5388 21.4278C18.66 21.4643 18.3964 21.4734 16.1735 21.4734C13.9474 21.4734 13.6838 21.4643 12.8083 21.4278C11.9946 21.3944 11.5553 21.2667 11.2624 21.1603C10.8751 21.0205 10.5952 20.8503 10.3055 20.5798C10.0126 20.3062 9.8336 20.0478 9.68389 19.6861C9.56998 19.4125 9.43329 18.9991 9.39749 18.2423C9.35843 17.4215 9.34867 17.1753 9.34867 15.0992C9.34867 13.0201 9.35843 12.7739 9.39749 11.9562C9.43329 11.1963 9.56998 10.786 9.68389 10.5124C9.8336 10.1507 10.0159 9.88927 10.3055 9.61874C10.5984 9.34517 10.8751 9.17799 11.2624 9.03816C11.5553 8.93177 11.9979 8.80411 12.8083 8.77067C13.6838 8.73419 13.9474 8.72508 16.1735 8.72508ZM16.1735 7.32379C13.9116 7.32379 13.6285 7.33291 12.7399 7.36939C11.8547 7.40586 11.2461 7.53961 10.7189 7.73111C10.1688 7.93172 9.70342 8.19617 9.24127 8.63085C8.77586 9.06248 8.49271 9.49715 8.27791 10.0078C8.07287 10.5033 7.92967 11.0687 7.89062 11.8954C7.85156 12.7283 7.8418 12.9928 7.8418 15.1053C7.8418 17.2179 7.85156 17.4823 7.89062 18.3122C7.92967 19.139 8.07287 19.7074 8.27791 20.1998C8.49271 20.7135 8.77586 21.1482 9.24127 21.5798C9.70342 22.0114 10.1688 22.2789 10.7156 22.4765C11.2461 22.668 11.8514 22.8018 12.7367 22.8382C13.6252 22.8747 13.9083 22.8838 16.1703 22.8838C18.4322 22.8838 18.7154 22.8747 19.6039 22.8382C20.4891 22.8018 21.0977 22.668 21.625 22.4765C22.1717 22.2789 22.6371 22.0114 23.0993 21.5798C23.5614 21.1482 23.8479 20.7135 24.0594 20.2028C24.2644 19.7074 24.4076 19.142 24.4467 18.3152C24.4858 17.4854 24.4955 17.2209 24.4955 15.1084C24.4955 12.9958 24.4858 12.7314 24.4467 11.9015C24.4076 11.0747 24.2644 10.5063 24.0594 10.0139C23.8544 9.49715 23.5712 9.06248 23.1058 8.63085C22.6437 8.19921 22.1783 7.93172 21.6315 7.73415C21.101 7.54265 20.4956 7.4089 19.6104 7.37243C18.7186 7.33291 18.4355 7.32379 16.1735 7.32379Z" fill="white"/>
<path d="M16.1733 11.1082C13.8105 11.1082 11.8936 12.8985 11.8936 15.1053C11.8936 17.3121 13.8105 19.1025 16.1733 19.1025C18.5362 19.1025 20.4531 17.3121 20.4531 15.1053C20.4531 12.8985 18.5362 11.1082 16.1733 11.1082ZM16.1733 17.6982C14.6404 17.6982 13.3972 16.537 13.3972 15.1053C13.3972 13.6736 14.6404 12.5125 16.1733 12.5125C17.7062 12.5125 18.9495 13.6736 18.9495 15.1053C18.9495 16.537 17.7062 17.6982 16.1733 17.6982Z" fill="white"/>
<path d="M21.6219 10.9501C21.6219 11.4668 21.1727 11.8833 20.6227 11.8833C20.0694 11.8833 19.6235 11.4638 19.6235 10.9501C19.6235 10.4333 20.0727 10.0169 20.6227 10.0169C21.1727 10.0169 21.6219 10.4364 21.6219 10.9501Z" fill="white"/>
</g>
<defs>
<clipPath id="clip0_2339_346">
<rect width="16.6635" height="15.5631" fill="white" transform="translate(7.8418 7.32379)"/>
</clipPath>
</defs>
</svg>
