<svg width="141" height="38" viewBox="0 0 141 38" fill="none" xmlns="http://www.w3.org/2000/svg">
<path d="M10.2063 0.529785H0V7.62009H10.2063V0.529785Z" fill="#00C7FD"/>
<path d="M9.95175 37.4701V11.9097H0.253906V37.4449H9.95175V37.4701ZM74.1682 37.7224V31.4648C72.7516 31.4648 71.553 31.4143 70.6813 31.3134C69.6643 31.2125 68.9016 30.9602 68.3931 30.6069C67.8846 30.2537 67.5577 29.749 67.3761 29.0677C67.2308 28.4369 67.1581 27.6043 67.1581 26.595V17.6879H74.1682V11.9097H67.1581V1.96813H57.4603V26.6707C57.4603 28.7649 57.7145 30.5312 58.223 31.9442C58.7315 33.332 59.6033 34.4675 60.8019 35.3254C62.0005 36.1833 63.5986 36.7888 65.5237 37.1673C67.485 37.5458 69.9549 37.7224 72.8969 37.7224H74.1682ZM129.667 37.4701V0H119.97V37.4701H129.667ZM48.1257 14.4329C45.4379 12.4143 41.6604 11.405 36.866 11.405C34.5414 11.405 32.3984 11.7331 30.5097 12.3891C28.5847 13.0452 26.9865 13.9535 25.679 15.1142L25.1705 15.5936V15.1647V11.9097H15.6179V37.4449H25.2431V23.8446V24.7782C25.2431 24.6268 25.2431 24.4754 25.2431 24.324C25.3521 21.927 26.1875 20.1607 27.7856 19.0252C29.4927 17.8141 31.563 17.2085 33.9239 17.2085C36.7207 17.2085 38.8637 17.8141 40.2802 18.9748C41.6604 20.1355 42.3869 21.7756 42.3869 23.8699V23.9456V37.4449H52.1573V22.9615C52.1937 19.328 50.8134 16.4515 48.1257 14.4329ZM114.957 24.6521C114.957 22.8101 114.485 21.0943 113.577 19.4794C112.633 17.8898 111.325 16.4768 109.691 15.2656C108.02 14.0544 106.022 13.1209 103.698 12.4396C101.373 11.7583 98.7942 11.4303 95.9974 11.4303C93.3459 11.4303 90.8397 11.7835 88.5152 12.4648C86.1906 13.1713 84.1566 14.1049 82.4495 15.2908C80.7424 16.4768 79.3621 17.8898 78.3815 19.5046C77.3645 21.1195 76.8923 22.8606 76.8923 24.7025C76.8923 26.5445 77.3645 28.2855 78.3088 29.9004C79.2532 31.5153 80.5971 32.9283 82.2679 34.1142C83.9387 35.3001 86.009 36.259 88.4062 36.9402C90.8034 37.6467 93.4549 38 96.288 38C104.497 38 109.582 35.4011 112.633 32.9788L105.659 29.2948C104.206 30.506 100.719 32.1461 96.3606 32.1461C93.6365 32.1461 91.3846 31.7171 89.6775 30.834C87.9703 29.9761 86.8081 28.7649 86.1906 27.2762L86.0816 27.0491H114.957V24.6521ZM86.1543 22.3054C86.1543 20.4382 89.2416 17.1833 95.8884 17.158C102.535 17.158 105.659 20.413 105.659 22.2802L86.1543 22.3054ZM140.709 34.2404C140.528 33.9376 140.273 33.6853 139.946 33.4582C139.62 33.2311 139.256 33.0544 138.82 32.9283C138.385 32.8021 137.912 32.7264 137.44 32.7264C136.932 32.7264 136.496 32.8021 136.06 32.9283C135.624 33.0544 135.261 33.2311 134.934 33.4582C134.607 33.6853 134.353 33.9376 134.171 34.2404C133.99 34.5432 133.881 34.8712 133.881 35.1992C133.881 35.5525 133.99 35.8552 134.171 36.158C134.353 36.4608 134.607 36.7131 134.934 36.9402C135.261 37.1673 135.624 37.344 136.06 37.4701C136.496 37.5963 136.968 37.672 137.44 37.672C137.949 37.672 138.385 37.5963 138.82 37.4701C139.256 37.344 139.62 37.1673 139.946 36.9402C140.273 36.7131 140.528 36.4608 140.709 36.158C140.891 35.8552 141 35.5272 141 35.1992C141 34.8712 140.891 34.5432 140.709 34.2404ZM140.128 36.0066C139.983 36.259 139.765 36.4861 139.511 36.6627C139.256 36.8393 138.929 36.9907 138.566 37.0916C138.203 37.1926 137.84 37.243 137.404 37.243C137.004 37.243 136.605 37.1926 136.242 37.0916C135.878 36.9907 135.552 36.8393 135.297 36.6627C135.043 36.4861 134.825 36.259 134.68 36.0066C134.535 35.7543 134.462 35.502 134.462 35.1992C134.462 34.9216 134.535 34.6441 134.68 34.3918C134.825 34.1394 135.043 33.9124 135.297 33.7357C135.552 33.5591 135.878 33.4077 136.242 33.3068C136.605 33.2058 136.968 33.1554 137.404 33.1554C137.803 33.1554 138.203 33.2058 138.566 33.3068C138.929 33.4077 139.256 33.5591 139.511 33.7357C139.765 33.9124 139.983 34.1394 140.128 34.3918C140.273 34.6441 140.346 34.8964 140.346 35.1992C140.346 35.502 140.273 35.7543 140.128 36.0066ZM138.094 35.4263C138.385 35.4011 138.603 35.3254 138.784 35.1992C138.966 35.073 139.075 34.8964 139.075 34.6441C139.075 34.3665 138.966 34.1647 138.711 34.0133C138.494 33.8619 138.094 33.7862 137.622 33.7862H136.024V36.6375H136.786V35.4768H137.331L138.348 36.6375H139.147L138.094 35.4263ZM137.694 34.9973C137.586 34.9973 137.477 34.9973 137.331 34.9973H136.786V34.1899H137.331C137.44 34.1899 137.549 34.1899 137.694 34.1899C137.803 34.1899 137.912 34.2151 138.021 34.2404C138.13 34.2656 138.203 34.3161 138.239 34.3665C138.312 34.417 138.312 34.4927 138.312 34.5936C138.312 34.6946 138.276 34.7703 138.239 34.8207C138.167 34.8712 138.094 34.9216 138.021 34.9469C137.912 34.9721 137.803 34.9973 137.694 34.9973Z" fill="white"/>
</svg>
