<svg width="140" height="35" viewBox="0 0 140 35" fill="none" xmlns="http://www.w3.org/2000/svg">
<mask id="mask0_2389_79" style="mask-type:luminance" maskUnits="userSpaceOnUse" x="0" y="0" width="140" height="35">
<path d="M140 0H0V35H140V0Z" fill="white"/>
</mask>
<g mask="url(#mask0_2389_79)">
<path d="M63.6532 7.71713C61.7903 7.71713 59.9928 8.63548 58.5916 10.3019L58.2535 10.7038V8.21956C58.2186 8.21956 58.1813 8.21956 58.1463 8.21956C56.4024 8.21956 54.5256 9.3947 54.5256 11.9739V35.002H58.2535V19.5885C58.2535 17.2383 58.6942 11.7757 62.7672 11.7757C65.959 11.7757 67.4113 14.8852 67.4113 17.777C67.4113 20.6687 65.8168 23.848 62.7672 23.848C62.0375 23.848 60.3309 23.7056 59.368 22.458C59.1325 23.3009 59.1628 24.6045 59.692 25.707C60.1513 26.6672 61.1562 27.8312 63.3198 27.9289C63.3873 27.9289 63.455 27.9316 63.5249 27.9316C65.4529 27.9316 67.3768 26.8989 68.803 25.0985C70.3094 23.1977 71.137 20.6324 71.137 17.8719C71.137 11.2816 67.2835 7.72556 63.6555 7.72556L63.6532 7.71713ZM45.1532 7.71713C43.2904 7.71713 41.4929 8.63548 40.0893 10.3019L39.7513 10.7038V8.21956C39.7163 8.21956 39.679 8.21956 39.6441 8.21956C37.9002 8.21956 36.0233 9.3947 36.0233 11.9739V35.002H39.7513V19.5885C39.7513 17.2383 40.1919 11.7757 44.265 11.7757C47.4567 11.7757 48.9115 14.8852 48.9115 17.777C48.9115 20.6687 47.3144 23.848 44.265 23.848C43.5352 23.848 41.8263 23.7056 40.8657 22.458C40.6302 23.3009 40.6606 24.6017 41.1875 25.7043C41.6467 26.6645 42.6516 27.8284 44.8152 27.9261C44.8828 27.9261 44.9504 27.9289 45.018 27.9289C46.9461 27.9289 48.8695 26.8961 50.2964 25.0957C51.8025 23.1949 52.6325 20.6296 52.6325 17.869C52.6325 11.2789 48.7786 7.72275 45.1509 7.72275L45.1532 7.71713ZM28.4112 16.6074C27.9333 16.6632 27.3621 16.7247 26.7839 16.7247C25.4573 16.7247 24.4315 16.3981 23.6597 15.7282C23.366 16.7832 23.4383 17.7435 23.8742 18.5139C24.5084 19.6387 25.8559 20.2835 27.5719 20.2835C28.3482 20.2835 29.1782 20.1523 30.0409 19.8955C33.3585 18.9158 34.2677 15.9543 34.0416 13.7156C33.7455 10.796 31.4817 7.65576 27.2105 7.65576C24.597 7.65576 22.3448 8.70247 20.8667 10.6033C18.5259 13.5397 17.8685 18.3101 19.2603 22.2095C20.5682 25.8661 23.3357 27.9624 26.8585 27.9624C29.9546 27.9624 32.1508 26.6812 33.7572 23.9317L30.7357 22.1732C29.6865 23.393 28.269 24.0909 26.8235 24.0909C26.5111 24.0909 26.201 24.0574 25.8979 23.9932C23.6761 23.5438 22.0511 20.7748 22.1233 17.5536C22.1863 14.1455 24.2729 11.4463 26.9774 11.2789C27.0636 11.2732 27.1476 11.2704 27.2315 11.2704C29.2878 11.2704 30.7823 12.9145 30.8336 14.3911C30.8778 15.6193 29.971 16.4483 28.4089 16.6102L28.4112 16.6074ZM9.1279 7.71713C7.26512 7.71713 5.46756 8.63548 4.06406 10.3019L3.72601 10.7038V8.21956C3.69103 8.21956 3.65373 8.21956 3.61876 8.21956C1.87485 8.21956 -0.00195312 9.3947 -0.00195312 11.9739V35.002H3.72601V19.5885C3.72601 17.2383 4.16665 11.7757 8.23969 11.7757C11.4314 11.7757 12.8839 14.8852 12.8839 17.777C12.8839 20.6687 11.2892 23.848 8.23969 23.848C7.50994 23.848 5.801 23.7056 4.84043 22.458C4.60496 23.3009 4.63526 24.6045 5.16217 25.707C5.62381 26.6672 6.62629 27.8312 8.7899 27.9289C8.85746 27.9289 8.92509 27.9316 8.99506 27.9316C10.9231 27.9316 12.8466 26.8989 14.2734 25.0985C15.7795 23.1977 16.6095 20.6324 16.6095 17.8719C16.6095 11.2816 12.7556 7.72556 9.1279 7.72556V7.71713ZM97.4451 7.64179C97.3538 7.64179 97.2631 7.6446 97.1699 7.65295C95.8969 7.72556 94.7707 8.76391 94.0761 10.5057L93.6985 11.4491V8.11353H90.5135V27.5409H94.2718V19.742C94.2718 18.7316 94.2718 17.4755 94.337 16.2446C94.547 13.3946 96.3678 11.8623 97.974 11.8623C98.8413 11.8623 99.5339 12.3116 99.8815 13.082C100.502 12.3647 100.706 11.1784 100.39 10.0256C99.9793 8.53499 98.8765 7.6446 97.4425 7.6446L97.4451 7.64179ZM82.9017 16.6074C82.4236 16.6632 81.8524 16.7247 81.2739 16.7247C79.9475 16.7247 78.9216 16.3981 78.1502 15.7282C77.856 16.7832 77.9284 17.7435 78.3647 18.5139C78.9986 19.6387 80.3459 20.2835 82.0624 20.2835C82.8384 20.2835 83.6686 20.1523 84.5314 19.8955C87.8488 18.9158 88.7605 15.9543 88.5316 13.7156C88.2355 10.796 85.9719 7.65576 81.7011 7.65576C79.0873 7.65576 76.8348 8.70247 75.357 10.6033C73.0165 13.5397 72.3565 18.3101 73.7508 22.2067C75.0564 25.8633 77.826 27.9596 81.3489 27.9596C84.4427 27.9596 86.641 26.6783 88.2473 23.9289L85.2259 22.1705C84.1766 23.3902 82.7615 24.0881 81.3137 24.0881C81.0013 24.0881 80.6916 24.0546 80.3883 23.9904C78.1665 23.541 76.5413 20.772 76.6111 17.5509C76.6744 14.1427 78.7606 11.4435 81.465 11.276C81.5517 11.2704 81.6352 11.2677 81.7193 11.2677C83.7755 11.2677 85.2676 12.9118 85.3218 14.3884C85.3661 15.6165 84.459 16.4455 82.8971 16.6074H82.9017ZM131.043 27.82C131.171 27.82 131.302 27.8144 131.43 27.8061C133.48 27.647 134.687 26.8766 135.119 25.4474C135.629 23.6443 135.035 22.2821 134.527 21.7239C134.519 22.19 134.398 22.5919 134.165 22.9213C133.76 23.4963 133.041 23.8006 132.092 23.8006C130.868 23.8006 129.954 22.8431 129.59 21.1767C129.244 19.6332 129.29 13.4672 129.318 9.77993C129.322 9.1379 129.327 8.57965 129.327 8.14984H125.665V20.8837C125.665 23.072 126.117 24.6966 127.047 25.8466C128.096 27.1361 129.479 27.8173 131.045 27.8173L131.043 27.82ZM136.275 8.14984C136.275 10.1037 136.291 23.5075 136.291 25.0957C136.291 28.769 134.632 30.7146 131.353 30.882C131.283 30.882 131.214 30.8848 131.146 30.8848C129.321 30.8848 126.958 29.9526 125.793 27.9177C125.445 29.7293 125.648 31.2561 126.402 32.4564C127.397 34.0474 129.362 34.9602 131.791 34.9602C137.009 34.9602 140.001 31.4627 140.001 25.3637V8.15257H136.272L136.275 8.14984ZM120.62 7.63898C120.528 7.63898 120.438 7.64179 120.344 7.65014C119.073 7.72275 117.945 8.7611 117.251 10.5028L116.873 11.4463V8.11072H113.688V27.5381H117.446V19.7392C117.446 18.7288 117.446 17.4727 117.512 16.2418C117.722 13.3919 119.542 11.8594 121.149 11.8594C122.016 11.8594 122.708 12.3089 123.056 13.0792C123.676 12.3619 123.881 11.1756 123.564 10.0228C123.151 8.53218 122.051 7.64179 120.617 7.64179L120.62 7.63898ZM109.354 3.65303C110.151 3.65303 111.112 4.17501 111.562 5.17429C112.219 4.18059 112.392 3.19247 112.061 2.29647C111.55 0.920359 109.909 -0.00634766 107.978 -0.00634766C107.911 -0.00634766 107.843 -0.00634768 107.776 -0.00355251C106.33 0.0634378 105.341 0.512835 104.759 1.36417C103.905 2.61189 103.92 4.71931 103.936 6.94955C103.938 7.26772 103.94 7.58877 103.94 7.90975V8.14702H102.472V11.9208H103.94V27.5325H107.701V11.9208H108.858C110.498 11.9208 111.706 10.3465 111.788 8.14702H107.701V5.61531C107.701 4.42343 108.349 3.65303 109.354 3.65303Z" fill="url(#paint0_linear_2389_79)"/>
</g>
<defs>
<linearGradient id="paint0_linear_2389_79" x1="0.000375024" y1="17.5006" x2="140.001" y2="17.5006" gradientUnits="userSpaceOnUse">
<stop stop-color="#BE1E2D"/>
<stop offset="1" stop-color="#F26522"/>
</linearGradient>
</defs>
</svg>
